<?xml version="1.0" encoding="UTF-8" standalone="no"?>
<!-- Created with Inkscape (http://www.inkscape.org/) -->

<svg
   xmlns:dc="http://purl.org/dc/elements/1.1/"
   xmlns:cc="http://creativecommons.org/ns#"
   xmlns:rdf="http://www.w3.org/1999/02/22-rdf-syntax-ns#"
   xmlns:svg="http://www.w3.org/2000/svg"
   xmlns="http://www.w3.org/2000/svg"
   xmlns:sodipodi="http://sodipodi.sourceforge.net/DTD/sodipodi-0.dtd"
   xmlns:inkscape="http://www.inkscape.org/namespaces/inkscape"
   width="32"
   height="32"
   viewBox="0 0 8.4666665 8.4666669"
   version="1.1"
   id="svg4557"
   inkscape:version="0.92.1 r15371"
   sodipodi:docname="mine_w.svg">
  <defs
     id="defs4551" />
  <sodipodi:namedview
     id="base"
     pagecolor="#ffffff"
     bordercolor="#666666"
     borderopacity="1.0"
     inkscape:pageopacity="0.0"
     inkscape:pageshadow="2"
     inkscape:zoom="5.6"
     inkscape:cx="6.6377035"
     inkscape:cy="10.263206"
     inkscape:document-units="mm"
     inkscape:current-layer="layer1"
     showgrid="false"
     units="px"
     inkscape:window-width="1920"
     inkscape:window-height="1017"
     inkscape:window-x="1912"
     inkscape:window-y="-8"
     inkscape:window-maximized="1" />
  <metadata
     id="metadata4554">
    <rdf:RDF>
      <cc:Work
         rdf:about="">
        <dc:format>image/svg+xml</dc:format>
        <dc:type
           rdf:resource="http://purl.org/dc/dcmitype/StillImage" />
        <dc:title></dc:title>
      </cc:Work>
    </rdf:RDF>
  </metadata>
  <g
     inkscape:label="Livello 1"
     inkscape:groupmode="layer"
     id="layer1"
     transform="translate(0,-288.53332)">
    <path
       style="fill:#ffffff;fill-opacity:1;stroke:none;stroke-width:0.04217344"
       d="M 1.7045543,290.67266 1.6234043,290.74053 2.9480533,292.33781 A 1.4338968,1.4338968 0 0 0 2.4444433,293.42666 1.4338968,1.4338968 0 0 0 3.8782733,294.86065 1.4338968,1.4338968 0 0 0 5.3122643,293.42666 1.4338968,1.4338968 0 0 0 4.7364542,292.28018 L 6.0062034,290.7399 5.9252033,290.6733 4.6500233,292.22015 A 1.4338968,1.4338968 0 0 0 3.8782733,291.99283 1.4338968,1.4338968 0 0 0 3.0306543,292.27233 Z M 5.3122643,293.42666 V 293.47949 L 5.6281032,293.48061 5.6287433,293.37528 5.3122643,293.37416 Z M 6.3889544,293.1683 6.3871955,293.694 6.8432623,293.43275 Z M 5.9452244,293.37592 5.9445732,293.48189 6.2610554,293.48237 V 293.3772 Z"
       id="circle2-2"
       inkscape:connector-curvature="0" />
  </g>
</svg>
