<?xml version="1.0" encoding="UTF-8" standalone="no"?>
<!-- Created with Inkscape (http://www.inkscape.org/) -->

<svg
   xmlns:dc="http://purl.org/dc/elements/1.1/"
   xmlns:cc="http://creativecommons.org/ns#"
   xmlns:rdf="http://www.w3.org/1999/02/22-rdf-syntax-ns#"
   xmlns:svg="http://www.w3.org/2000/svg"
   xmlns="http://www.w3.org/2000/svg"
   xmlns:sodipodi="http://sodipodi.sourceforge.net/DTD/sodipodi-0.dtd"
   xmlns:inkscape="http://www.inkscape.org/namespaces/inkscape"
   width="32"
   height="32"
   viewBox="0 0 8.4666665 8.4666669"
   version="1.1"
   id="svg4557"
   inkscape:version="0.92.1 r15371"
   sodipodi:docname="pylon_w.svg">
  <defs
     id="defs4551" />
  <sodipodi:namedview
     id="base"
     pagecolor="#ffffff"
     bordercolor="#666666"
     borderopacity="1.0"
     inkscape:pageopacity="0.0"
     inkscape:pageshadow="2"
     inkscape:zoom="5.6"
     inkscape:cx="6.6377035"
     inkscape:cy="10.263206"
     inkscape:document-units="mm"
     inkscape:current-layer="layer1"
     showgrid="false"
     units="px"
     inkscape:window-width="1920"
     inkscape:window-height="1017"
     inkscape:window-x="1912"
     inkscape:window-y="-8"
     inkscape:window-maximized="1" />
  <metadata
     id="metadata4554">
    <rdf:RDF>
      <cc:Work
         rdf:about="">
        <dc:format>image/svg+xml</dc:format>
        <dc:type
           rdf:resource="http://purl.org/dc/dcmitype/StillImage" />
        <dc:title></dc:title>
      </cc:Work>
    </rdf:RDF>
  </metadata>
  <g
     inkscape:label="Livello 1"
     inkscape:groupmode="layer"
     id="layer1"
     transform="translate(0,-288.53332)">
    <path
       style="fill:#ffffff;fill-opacity:1;stroke-width:0.80952448"
       d="M 4.2946078,288.5339 C 4.2492579,288.532 4.2002888,288.53471 4.1471129,288.54225 3.5893498,288.62241 3.6509159,289.23273 3.653348,289.61725 3.667109,291.47591 3.3238358,293.2892 2.3151668,294.89125 2.1144068,295.2102 1.9039409,295.54383 1.6667499,295.83445 1.4886568,296.05302 0.84907677,296.48201 0.99964777,296.80906 1.2732668,297.40487 2.9950538,296.00443 3.4046739,295.76885 4.1162439,295.22647 4.4975458,295.2418 5.4252596,295.95015 5.9004506,296.3128 6.7959046,297.11664 7.3172366,296.95636 7.9130466,296.77422 6.7853396,295.79466 6.6493406,295.61818 6.2065286,295.03937 5.8673936,294.39992 5.5630146,293.73853 5.0424896,292.60681 4.7832556,291.27353 4.8026846,290.05277 4.8079966,289.59969 4.9748196,288.5624 4.2946078,288.5339 Z M 4.2232438,296.07916 C 4.2048738,296.08017 4.1857979,296.0822 4.1663928,296.08531 3.6086309,296.17356 3.6881108,297.02763 4.2588258,296.9993 4.8634646,296.98753 4.7927546,296.04737 4.2232438,296.07916 Z"
       id="path4791-3"
       inkscape:connector-curvature="0" />
  </g>
</svg>
