<?xml version="1.0" encoding="UTF-8" standalone="no"?>
<!-- Created with Inkscape (http://www.inkscape.org/) -->

<svg
   xmlns:dc="http://purl.org/dc/elements/1.1/"
   xmlns:cc="http://creativecommons.org/ns#"
   xmlns:rdf="http://www.w3.org/1999/02/22-rdf-syntax-ns#"
   xmlns:svg="http://www.w3.org/2000/svg"
   xmlns="http://www.w3.org/2000/svg"
   xmlns:sodipodi="http://sodipodi.sourceforge.net/DTD/sodipodi-0.dtd"
   xmlns:inkscape="http://www.inkscape.org/namespaces/inkscape"
   width="56.619999"
   height="32"
   viewBox="0 0 14.980708 8.4666669"
   version="1.1"
   id="svg4557"
   inkscape:version="0.92.1 r15371"
   sodipodi:docname="ogc-logo.svg">
  <defs
     id="defs4551" />
  <sodipodi:namedview
     id="base"
     pagecolor="#ffffff"
     bordercolor="#666666"
     borderopacity="1.0"
     inkscape:pageopacity="0.0"
     inkscape:pageshadow="2"
     inkscape:zoom="7.9195959"
     inkscape:cx="33.50061"
     inkscape:cy="3.2215382"
     inkscape:document-units="mm"
     inkscape:current-layer="layer1"
     showgrid="false"
     units="px"
     inkscape:window-width="1920"
     inkscape:window-height="1017"
     inkscape:window-x="1912"
     inkscape:window-y="-8"
     inkscape:window-maximized="1" />
  <metadata
     id="metadata4554">
    <rdf:RDF>
      <cc:Work
         rdf:about="">
        <dc:format>image/svg+xml</dc:format>
        <dc:type
           rdf:resource="http://purl.org/dc/dcmitype/StillImage" />
        <dc:title />
      </cc:Work>
    </rdf:RDF>
  </metadata>
  <g
     inkscape:label="Livello 1"
     inkscape:groupmode="layer"
     id="layer1"
     transform="translate(0,-288.53332)">
    <path
       style="fill:#21375c;stroke-width:0.00528699;fill-opacity:1"
       d="M 4.6449809,296.99001 C 4.6449809,296.98224 4.6502505,296.97925 4.6688709,296.97646 4.7040012,296.97119 4.7182373,296.95621 4.7243942,296.91804 4.730484,296.88029 4.7308126,296.34784 4.7247686,296.3111 4.7224737,296.29714 4.7177393,296.28287 4.7142483,296.27938 4.7107568,296.27588 4.69494,296.27303 4.6790991,296.27303 4.6531036,296.27303 4.6502973,296.27191 4.6502833,296.26159 4.6502693,296.2515 4.6605266,296.24673 4.7371443,296.22114 4.7849263,296.20518 4.8253719,296.19347 4.827023,296.19512 4.8286741,296.19677 4.8300257,296.2158 4.8300257,296.23739 V 296.27665 L 4.8569097,296.25248 C 4.9524694,296.16656 5.0779934,296.17257 5.1457404,296.2663 5.1730764,296.30413 5.1838704,296.32916 5.1926674,296.37514 5.2076184,296.45328 5.1986804,296.52797 5.1661934,296.59638 5.1176554,296.69859 5.0469014,296.75203 4.9596854,296.75238 4.9106442,296.75257 4.8834715,296.74478 4.8535795,296.72196 L 4.8291243,296.7033 4.8308959,296.81885 C 4.8331327,296.96462 4.8336705,296.96568 4.9106518,296.97609 4.9308082,296.97882 4.9357647,296.98151 4.9357647,296.98974 4.9357647,296.99963 4.9307081,296.99999 4.7903728,296.99999 4.6514224,296.99999 4.6449809,296.99954 4.6449809,296.99001 Z M 4.9912784,296.69932 C 5.0545884,296.67044 5.0940564,296.5857 5.0942834,296.47815 5.0945124,296.37023 5.0543794,296.29662 4.9822364,296.27266 4.93178,296.2559 4.8703229,296.27559 4.8420207,296.31759 4.8302639,296.33504 4.8300257,296.33832 4.8300257,296.48286 4.8300257,296.61741 4.8309066,296.63204 4.8400845,296.64993 4.8602404,296.68924 4.8936325,296.70873 4.941052,296.70888 4.9581314,296.70893 4.9788564,296.70499 4.9912784,296.69932 Z M 6.5126164,296.99212 C 6.4383084,296.9713 6.3896894,296.92737 6.3896894,296.88103 6.3896894,296.85253 6.4003774,296.83667 6.4528974,296.78723 6.4791974,296.76247 6.5007154,296.74102 6.5007154,296.73957 6.5007154,296.73811 6.4935304,296.73395 6.4847474,296.73031 6.4759654,296.72667 6.4628804,296.71668 6.4556694,296.70811 6.4302474,296.6779 6.4403574,296.65198 6.5019874,296.5894 L 6.5444694,296.54626 6.5235544,296.53559 C 6.4971074,296.5221 6.4658124,296.48767 6.4512674,296.45607 6.4426064,296.43725 6.4400064,296.42128 6.4399674,296.38659 6.4399214,296.34646 6.4417794,296.33775 6.4569534,296.30692 6.4878224,296.24422 6.5360444,296.20778 6.6037424,296.19599 6.6489384,296.18812 6.6779984,296.19161 6.7425914,296.21268 6.7890574,296.22784 6.8002734,296.22946 6.8562664,296.22916 L 6.9183884,296.22883 V 296.25489 296.28096 H 6.8686704 6.8189514 L 6.8299114,296.30871 C 6.8457034,296.34871 6.8456974,296.41223 6.8298984,296.4466 6.8136754,296.48188 6.7904784,296.50976 6.7612344,296.52913 6.7243314,296.55358 6.6912194,296.56158 6.6272724,296.5615 L 6.5714284,296.56144 6.5469894,296.58641 C 6.5335494,296.60015 6.5209914,296.61776 6.5190864,296.62555 6.5128494,296.65104 6.5353044,296.65722 6.6540134,296.66272 6.8141964,296.67013 6.8636204,296.68532 6.8919534,296.73586 6.9028344,296.75526 6.9051474,296.76644 6.9050384,296.79908 6.9048764,296.84709 6.8891154,296.8821 6.8538344,296.9128 6.8269254,296.93621 6.7488304,296.97511 6.7042654,296.98729 6.6597524,296.99946 6.5487934,297.00225 6.5126164,296.99212 Z M 6.7389984,296.92371 C 6.8532844,296.89948 6.9099564,296.81704 6.8402924,296.77635 6.8259954,296.76801 6.8059964,296.76552 6.7213904,296.76157 6.6654454,296.75897 6.6009504,296.75427 6.5780644,296.75114 6.5368134,296.74549 6.5363324,296.74557 6.5218614,296.75943 6.4994704,296.78088 6.4789464,296.82253 6.4786054,296.84721 6.4780734,296.88584 6.5059344,296.91032 6.5650754,296.92316 6.6089574,296.93268 6.6953814,296.93296 6.7389984,296.92371 Z M 6.7095614,296.51671 C 6.7485994,296.49113 6.7563984,296.40634 6.7276874,296.31965 6.7060534,296.25434 6.6670284,296.22283 6.6162094,296.22964 6.5750444,296.23516 6.5514074,296.26329 6.5427474,296.31707 6.5279314,296.40907 6.5764284,296.51525 6.6391114,296.52805 6.6649694,296.53334 6.6904484,296.52923 6.7095614,296.51671 Z M 8.5414974,296.99001 C 8.5414974,296.98224 8.5467664,296.97925 8.5653864,296.97646 8.6005164,296.97119 8.6147534,296.95621 8.6209104,296.91804 8.6270004,296.88029 8.6273284,296.34784 8.6212844,296.3111 8.6189904,296.29714 8.6142554,296.28287 8.6107644,296.27938 8.6072724,296.27588 8.5914564,296.27303 8.5756154,296.27303 8.5496194,296.27303 8.5468124,296.27191 8.5467994,296.26159 8.5467854,296.2515 8.5570424,296.24673 8.6336604,296.22114 8.6814424,296.20518 8.7218884,296.19347 8.7235394,296.19512 8.7251904,296.19677 8.7265414,296.2158 8.7265414,296.23739 V 296.27665 L 8.7534254,296.25248 C 8.7682124,296.23919 8.7961174,296.22052 8.8154374,296.21101 8.8473264,296.19532 8.8549584,296.19373 8.8982574,296.19383 8.9564564,296.19396 8.9853534,296.20596 9.0252564,296.24661 9.1032054,296.326 9.1193794,296.47705 9.0627094,296.59638 9.0135304,296.69994 8.9430894,296.75244 8.8535964,296.75224 8.8072784,296.75215 8.7747634,296.74209 8.7459124,296.71895 L 8.7256324,296.70269 8.7274084,296.81854 C 8.7296484,296.96467 8.7301624,296.96568 8.8071674,296.97609 8.8273254,296.97882 8.8322814,296.98151 8.8322814,296.98974 8.8322814,296.99963 8.8272254,296.99999 8.6868884,296.99999 8.5479374,296.99999 8.5414974,296.99954 8.5414974,296.99001 Z M 8.8877954,296.69932 C 8.9558434,296.66828 8.9944904,296.5776 8.9894954,296.46071 8.9855784,296.36905 8.9558764,296.31077 8.8978964,296.28097 8.8592274,296.2611 8.8113284,296.2622 8.7764304,296.28378 8.7621864,296.29259 8.7451334,296.3078 8.7385364,296.31759 8.7267804,296.33504 8.7265414,296.33832 8.7265414,296.48286 8.7265414,296.61741 8.7274224,296.63204 8.7366004,296.64993 8.7421334,296.66072 8.7526144,296.6751 8.7598914,296.6819 8.7887224,296.7088 8.8490134,296.71702 8.8877954,296.69932 Z M 12.603234,296.99212 C 12.528927,296.9713 12.480308,296.92737 12.480308,296.88103 12.480308,296.85253 12.490996,296.83667 12.543517,296.78723 12.569816,296.76247 12.591335,296.74102 12.591335,296.73957 12.591335,296.73811 12.584149,296.73395 12.575367,296.73031 12.566584,296.72667 12.553499,296.71668 12.546289,296.70811 12.520866,296.6779 12.530977,296.65198 12.592606,296.5894 L 12.635088,296.54626 12.614173,296.53559 C 12.587726,296.5221 12.556431,296.48767 12.541886,296.45607 12.533225,296.43725 12.530626,296.42128 12.530586,296.38659 12.53054,296.34646 12.532399,296.33775 12.547572,296.30692 12.578442,296.24422 12.626663,296.20778 12.694361,296.19599 12.739558,296.18812 12.768618,296.19161 12.833211,296.21268 12.879677,296.22784 12.890892,296.22946 12.946885,296.22916 L 13.009008,296.22883 V 296.25489 296.28096 H 12.95929 12.90957 L 12.920531,296.30871 C 12.936322,296.34871 12.936317,296.41223 12.920518,296.4466 12.904294,296.48188 12.881098,296.50976 12.851855,296.52913 12.81495,296.55358 12.781838,296.56158 12.717892,296.5615 L 12.662048,296.56144 12.637609,296.58641 C 12.624168,296.60015 12.611612,296.61776 12.609706,296.62555 12.603468,296.65104 12.625923,296.65722 12.744632,296.66272 12.904815,296.67013 12.954239,296.68532 12.982573,296.73586 12.993453,296.75526 12.995766,296.76644 12.995657,296.79908 12.995496,296.84709 12.979734,296.8821 12.944453,296.9128 12.917544,296.93621 12.839449,296.97511 12.794885,296.98729 12.750371,296.99946 12.639412,297.00225 12.603234,296.99212 Z M 12.829617,296.92371 C 12.943903,296.89948 13.000575,296.81704 12.930912,296.77635 12.916615,296.76801 12.896615,296.76552 12.812008,296.76157 12.756064,296.75897 12.691569,296.75427 12.668684,296.75114 12.627431,296.74549 12.626952,296.74557 12.61248,296.75943 12.590089,296.78088 12.569565,296.82253 12.569224,296.84721 12.568692,296.88584 12.596553,296.91032 12.655694,296.92316 12.699576,296.93268 12.786,296.93296 12.829617,296.92371 Z M 12.800181,296.51671 C 12.839219,296.49113 12.847018,296.40634 12.818307,296.31965 12.796672,296.25434 12.757648,296.22283 12.706828,296.22964 12.665663,296.23516 12.642027,296.26329 12.633367,296.31707 12.61855,296.40907 12.667048,296.51525 12.729731,296.52805 12.755588,296.53334 12.781067,296.52923 12.800181,296.51671 Z M 4.2815663,296.75407 C 4.2357091,296.74411 4.1910147,296.7188 4.1541354,296.68192 4.0978327,296.62562 4.0723374,296.56005 4.0722368,296.47129 4.0721443,296.38974 4.093869,296.3322 4.1460127,296.27588 4.1985491,296.21914 4.2527257,296.19636 4.335203,296.19636 4.4160899,296.19636 4.4730955,296.21905 4.5262541,296.27239 4.6545955,296.40117 4.6144586,296.65338 4.4529547,296.73299 4.3955926,296.76127 4.3439436,296.76762 4.2815663,296.75407 Z M 4.4086191,296.71104 C 4.46186,296.68351 4.4894512,296.61246 4.4883744,296.50565 4.4870493,296.37417 4.4327752,296.26124 4.3605036,296.23959 4.2913304,296.21887 4.2300093,296.25214 4.2003093,296.32653 4.1891765,296.35441 4.1878819,296.36608 4.1877749,296.43957 4.1876706,296.51098 4.189248,296.52659 4.200048,296.56098 4.2360894,296.67575 4.2924308,296.73013 4.3669182,296.72202 4.3811855,296.72046 4.3999505,296.71553 4.4086191,296.71104 Z M 7.7181134,296.75407 C 7.6352854,296.73607 7.5577284,296.66749 7.5268414,296.58494 7.5109074,296.54235 7.5037734,296.47782 7.5100304,296.43285 7.5195094,296.36473 7.5386614,296.3233 7.5825984,296.27584 7.6350944,296.21914 7.6892924,296.19636 7.7717494,296.19636 7.8526374,296.19636 7.9096424,296.21905 7.9628014,296.27239 8.0911434,296.40117 8.0510064,296.65338 7.8895024,296.73299 7.8321394,296.76127 7.7804904,296.76762 7.7181134,296.75407 Z M 7.8432284,296.71205 C 7.8968914,296.6843 7.9252404,296.61473 7.9251844,296.51094 7.9251444,296.43605 7.9121324,296.37888 7.8821344,296.32179 7.8405114,296.24258 7.7694304,296.21279 7.7032234,296.24681 7.6718674,296.26292 7.6562334,296.28166 7.6379254,296.32508 7.6251434,296.35539 7.6242024,296.36323 7.6242024,296.43957 7.6242024,296.51077 7.6258264,296.52669 7.6365954,296.56098 7.6726364,296.67575 7.7289784,296.73013 7.8034654,296.72202 7.8177334,296.72046 7.8356254,296.71598 7.8432284,296.71205 Z M 11.715083,296.75439 C 11.668824,296.74389 11.624283,296.71855 11.587652,296.68192 11.531246,296.62552 11.505761,296.55987 11.505873,296.47129 11.505977,296.38922 11.52753,296.33205 11.579528,296.27588 11.632065,296.21914 11.686241,296.19636 11.768719,296.19636 11.849606,296.19636 11.906611,296.21905 11.95977,296.27239 12.098867,296.41196 12.038081,296.68619 11.854355,296.74796 11.817133,296.76048 11.754567,296.76337 11.715083,296.75439 Z M 11.847314,296.70776 C 11.873155,296.69323 11.896127,296.65837 11.910766,296.61146 11.920011,296.58185 11.922318,296.56161 11.92223,296.51094 11.922102,296.43721 11.909734,296.38183 11.880375,296.32353 11.818862,296.20138 11.683136,296.20303 11.633825,296.32653 11.622693,296.35441 11.621398,296.36608 11.621291,296.43957 11.621159,296.52979 11.628913,296.56669 11.661616,296.63147 11.702927,296.71331 11.780639,296.74523 11.847314,296.70776 Z M 3.9063793,296.74674 C 3.8390809,296.70447 3.8855937,296.59995 3.9606738,296.62473 3.988841,296.63403 4.0052536,296.65752 4.0052536,296.68854 4.0052536,296.71068 4.0026145,296.71752 3.9878896,296.73359 3.9656303,296.75788 3.9326066,296.76321 3.9063793,296.74674 Z M 5.4222964,296.74831 C 5.3617684,296.73204 5.3214604,296.69594 5.2878214,296.62786 5.2129004,296.47623 5.2687094,296.27992 5.4048604,296.21617 5.4347814,296.20216 5.4485014,296.19906 5.4882564,296.19733 5.5485544,296.1947 5.5855034,296.20488 5.6272564,296.23562 5.6766854,296.27201 5.7026704,296.32032 5.7092234,296.38802 L 5.7116544,296.41313 H 5.5272594 5.3428634 V 296.42852 C 5.3428634,296.45379 5.3569604,296.5193 5.3696924,296.5532 5.3833164,296.58947 5.4268034,296.6369 5.4618214,296.65369 5.4878904,296.66618 5.5527404,296.67056 5.5828394,296.66185 5.6229784,296.65025 5.6574884,296.62094 5.7063304,296.55696 5.7142654,296.54657 5.7169294,296.54581 5.7248724,296.55167 5.7335784,296.5581 5.7331724,296.56058 5.7182474,296.59208 5.6997914,296.63102 5.6911014,296.64295 5.6516994,296.68344 5.5902734,296.74656 5.5052484,296.7706 5.4222964,296.74831 Z M 5.5832224,296.3563 C 5.5698374,296.27643 5.5368964,296.24263 5.4724644,296.24263 5.4100454,296.24263 5.3695694,296.27852 5.3505094,296.35077 L 5.3438204,296.37612 H 5.4651824 5.5865454 Z M 7.1405704,296.74867 C 7.1246474,296.74419 7.1016864,296.73471 7.0895454,296.7276 7.0233264,296.68879 6.9710414,296.57812 6.9713504,296.47743 6.9716894,296.36678 7.0351094,296.25737 7.1226554,296.2164 7.1832334,296.18806 7.2673254,296.18938 7.3202004,296.21951 7.3871944,296.25769 7.4198454,296.30897 7.4274974,296.38802 L 7.4299284,296.41313 H 7.2455324 7.0611374 V 296.42841 C 7.0611374,296.4602 7.0784134,296.53334 7.0933344,296.5647 7.1100334,296.5998 7.1466444,296.63714 7.1812094,296.65431 7.2119664,296.66959 7.2932064,296.66845 7.3260384,296.65227 7.3530504,296.63896 7.3940394,296.60092 7.4142044,296.57045 7.4264694,296.55192 7.4428434,296.54474 7.4492404,296.55508 7.4542894,296.56325 7.4169984,296.63205 7.3914874,296.66162 7.3586184,296.69972 7.3219054,296.72698 7.2846924,296.7409 7.2445894,296.7559 7.1789214,296.75944 7.1405704,296.74867 Z M 7.3014964,296.3563 C 7.2881114,296.27643 7.2551704,296.24263 7.1907374,296.24263 7.1283444,296.24263 7.0917004,296.27469 7.0699154,296.34836 L 7.0617074,296.37612 H 7.1832634 7.3048184 Z M 11.339895,296.74674 C 11.272819,296.70461 11.316309,296.60388 11.392491,296.62491 11.421495,296.63292 11.43877,296.65667 11.43877,296.68854 11.43877,296.71068 11.436131,296.71752 11.421406,296.73359 11.399146,296.75788 11.366123,296.76321 11.339895,296.74674 Z M 1.4199751,296.51038 C 1.3662147,296.37776 1.3174044,296.26059 1.3115078,296.24999 1.3043757,296.23717 1.2950666,296.22904 1.2836896,296.22567 1.2726514,296.22241 1.2665896,296.21725 1.2665896,296.21113 1.2665896,296.20232 1.2743832,296.20165 1.3776165,296.20165 1.4737936,296.20165 1.4886444,296.20273 1.4886444,296.20975 1.4886444,296.21807 1.4858042,296.21964 1.4609532,296.22508 1.4529935,296.22683 1.4424684,296.23438 1.4375651,296.24186 1.4291062,296.25477 1.429259,296.25755 1.4405322,296.29597 1.4503963,296.32959 1.5492674,296.58655 1.5542573,296.59153 1.5551087,296.59239 1.5789583,296.54367 1.6072599,296.48328 1.6655886,296.35881 1.6645328,296.36622 1.6340143,296.29518 1.6125123,296.24513 1.6044057,296.23557 1.5749079,296.22545 1.56381,296.22164 1.5539626,296.21473 1.5530208,296.21009 1.5514945,296.20255 1.5646302,296.20165 1.6759443,296.20165 1.7945506,296.20165 1.8005758,296.20214 1.8005758,296.21163 1.8005758,296.21942 1.7952847,296.22239 1.776403,296.22522 1.7432755,296.23019 1.7298144,296.24447 1.7333559,296.27087 1.7348618,296.2821 1.7616398,296.35805 1.7928618,296.43964 L 1.8496319,296.58799 1.9072049,296.44724 C 1.9724289,296.28778 1.9803494,296.26076 1.9675681,296.24125 1.9629289,296.23417 1.9514147,296.22637 1.9419846,296.22393 1.932526,296.22148 1.9240666,296.21549 1.9231195,296.21057 1.9215706,296.20253 1.9290167,296.20165 1.9984518,296.20165 2.0527597,296.20165 2.0755003,296.20344 2.0755003,296.2077 2.0755003,296.21103 2.0671964,296.22114 2.0570472,296.23017 2.0379358,296.24718 2.0424863,296.23666 1.8718777,296.65816 1.8400415,296.73681 1.8273522,296.75889 1.8188638,296.7504 1.8175424,296.74908 1.7877036,296.67681 1.7525577,296.58982 1.7174128,296.50282 1.6880081,296.43098 1.6872159,296.43019 1.6864242,296.4294 1.6515326,296.50136 1.6096806,296.5901 1.5597172,296.69604 1.5308584,296.75146 1.5256512,296.75147 1.5201391,296.75149 1.4879022,296.67794 1.4199751,296.51038 Z M 2.2818357,296.51072 C 2.2282415,296.37829 2.1794823,296.26112 2.1734808,296.25033 2.166167,296.2372 2.1569315,296.22906 2.1454695,296.22567 2.134433,296.22241 2.1283701,296.21725 2.1283701,296.21113 2.1283701,296.20232 2.1361626,296.20165 2.239397,296.20165 2.3355746,296.20165 2.3504244,296.20273 2.3504244,296.20975 2.3504244,296.21807 2.3475857,296.21964 2.3227337,296.22508 2.3147745,296.22683 2.3042499,296.23438 2.299345,296.24186 2.2908867,296.25477 2.29104,296.25755 2.302324,296.29597 2.3147175,296.33816 2.4143237,296.59419 2.4172188,296.5913 2.4236371,296.58489 2.5196077,296.37264 2.5196077,296.36486 2.5196077,296.34953 2.4822256,296.25995 2.4698858,296.24572 2.4637929,296.23869 2.4492911,296.2297 2.4376597,296.22573 2.4260283,296.22177 2.415742,296.21473 2.4148024,296.21009 2.4132755,296.20255 2.4264107,296.20165 2.5377247,296.20165 2.6588319,296.20165 2.6623568,296.20195 2.6623568,296.21222 2.6623568,296.22002 2.6588319,296.2228 2.6489694,296.2228 2.6416067,296.2228 2.6274168,296.22621 2.6174354,296.23038 2.5961071,296.23929 2.589997,296.25606 2.5975109,296.28506 2.6039292,296.30983 2.7044852,296.57291 2.7097005,296.57857 2.7118211,296.58087 2.7386819,296.5214 2.7693925,296.4464 2.8239887,296.31307 2.8367387,296.27748 2.8367979,296.25825 2.8368415,296.24431 2.8129483,296.2228 2.7974156,296.2228 2.7874826,296.2228 2.7839577,296.22003 2.7839577,296.21222 2.7839577,296.20214 2.7874826,296.20165 2.8606195,296.20165 2.9146365,296.20165 2.9372808,296.20344 2.9372808,296.2077 2.9372808,296.21103 2.9289193,296.22114 2.9187008,296.23017 2.902407,296.24457 2.8876068,296.27748 2.7984218,296.49766 2.7286667,296.66986 2.6940419,296.74924 2.6881899,296.75036 2.6815424,296.75164 2.6659241,296.71775 2.6175419,296.5971 2.5833797,296.51191 2.553741,296.4391 2.5516784,296.4353 2.5494158,296.43113 2.5176641,296.49247 2.4716461,296.58991 2.4209061,296.69736 2.3926701,296.75145 2.3873209,296.75147 2.3816582,296.75149 2.3504373,296.68023 2.2818357,296.51072 Z M 3.1381864,296.51032 C 3.084391,296.37767 3.0355812,296.2605 3.0297196,296.24994 3.0226284,296.23716 3.0133403,296.22904 3.0019627,296.22567 2.9909261,296.22241 2.9848638,296.21725 2.9848638,296.21113 2.9848638,296.20232 2.9926563,296.20165 3.0958907,296.20165 3.1920673,296.20165 3.2069175,296.20273 3.2069175,296.20975 3.2069175,296.21807 3.2040789,296.21964 3.1792274,296.22508 3.1712676,296.22683 3.1607425,296.23438 3.1558381,296.24186 3.1473793,296.25477 3.1475326,296.25755 3.1588177,296.29597 3.1712112,296.33816 3.2708174,296.59419 3.273712,296.5913 3.2801298,296.58489 3.3761009,296.37264 3.3761009,296.36486 3.3761009,296.34953 3.3387187,296.25995 3.3263795,296.24572 3.3202866,296.23869 3.3057848,296.2297 3.2941529,296.22573 3.2825215,296.22177 3.2722357,296.21473 3.2712956,296.21009 3.2697687,296.20255 3.2829044,296.20165 3.3942179,296.20165 3.5128253,296.20165 3.5188505,296.20214 3.5188505,296.21163 3.5188505,296.21942 3.5135594,296.22239 3.4946782,296.22522 3.4613539,296.23022 3.4480832,296.24443 3.4516828,296.27127 3.4532177,296.28272 3.4800065,296.35868 3.5112135,296.44009 L 3.5679523,296.58809 3.6227996,296.45435 C 3.6776572,296.32058 3.6933206,296.2771 3.6933206,296.25861 3.6933206,296.24434 3.6696066,296.2228 3.6539093,296.2228 3.6439763,296.2228 3.6404509,296.22003 3.6404509,296.21222 3.6404509,296.20214 3.6439763,296.20165 3.7171122,296.20165 3.7711296,296.20165 3.793774,296.20344 3.793774,296.2077 3.793774,296.21103 3.7854679,296.22114 3.775316,296.23017 3.7596547,296.2441 3.7471278,296.27063 3.6926505,296.4052 3.5581043,296.73757 3.553336,296.74869 3.5446669,296.75036 3.5380404,296.75163 3.5223641,296.71762 3.4740356,296.5971 3.4398728,296.51191 3.4102094,296.43906 3.4081162,296.4352 3.4057805,296.4309 3.3748677,296.49062 3.3280839,296.58982 3.2780199,296.69598 3.2491347,296.75146 3.243927,296.75147 3.2384181,296.75148 3.2061237,296.67783 3.1381864,296.51032 Z M 8.2093804,296.7403 C 8.1690544,296.73026 8.1646334,296.73006 8.1560944,296.73779 8.1509734,296.74242 8.1428064,296.74621 8.1379474,296.74621 8.1300174,296.74621 8.1291104,296.73645 8.1291104,296.65105 V 296.55588 H 8.1414864 C 8.1521014,296.55588 8.1547484,296.55983 8.1600894,296.58364 8.1739604,296.64548 8.2061654,296.69103 8.2497294,296.71042 8.2805334,296.72413 8.3342204,296.72448 8.3570384,296.71112 8.4137764,296.67789 8.4115274,296.60343 8.3525364,296.562 8.3386974,296.55228 8.3000954,296.52848 8.2667554,296.50913 8.1891254,296.46405 8.1508354,296.42717 8.1374324,296.38456 8.1154464,296.31466 8.1435964,296.2472 8.2093844,296.21213 8.2543514,296.18817 8.2971554,296.18529 8.3615894,296.2019 8.4029264,296.21256 8.4108004,296.21322 8.4224074,296.20701 8.4297414,296.20308 8.4374054,296.20154 8.4394414,296.20357 8.4414764,296.20561 8.4441544,296.24289 8.4453904,296.28641 8.4475704,296.3631 8.4473084,296.36555 8.4369254,296.36555 8.4282664,296.36555 8.4240774,296.35852 8.4150784,296.32889 8.3942374,296.26028 8.3512584,296.22278 8.2934974,296.22282 8.2426464,296.22285 8.2084754,296.25445 8.2084354,296.30148 8.2083994,296.34411 8.2293974,296.36633 8.3115114,296.41057 8.4157564,296.46672 8.4487414,296.4933 8.4734894,296.5411 8.4876934,296.56854 8.4891544,296.6221 8.4765174,296.65205 8.4640724,296.68154 8.4275914,296.71784 8.3942154,296.73394 8.3531404,296.75375 8.2743274,296.75646 8.2093804,296.7403 Z M 9.2591954,296.74428 C 9.2272264,296.73235 9.2041874,296.71133 9.1889474,296.68018 9.1769574,296.65567 9.1750384,296.64583 9.1768274,296.61801 9.1824764,296.53011 9.2461104,296.47534 9.4183874,296.41008 L 9.4731504,296.38934 9.4709144,296.32979 C 9.4690754,296.28081 9.4667954,296.26767 9.4580714,296.25577 9.4287944,296.21584 9.3546054,296.21072 9.3147194,296.24588 9.3040954,296.25524 9.3028234,296.26129 9.3028234,296.30244 9.3028234,296.35885 9.2959014,296.37053 9.2600764,296.37457 9.2397694,296.37686 9.2337734,296.37517 9.2194904,296.36315 9.1868384,296.33568 9.1922444,296.29332 9.2340924,296.24875 9.2712254,296.2092 9.3081564,296.19484 9.3799244,296.19207 9.4512774,296.18932 9.4857504,296.1977 9.5185494,296.22578 9.5409184,296.24492 9.5529004,296.26309 9.5634734,296.29387 9.5666434,296.30309 9.5703314,296.3854 9.5720654,296.48565 9.5747524,296.6409 9.5761394,296.6623 9.5840364,296.67019 9.5960064,296.68214 9.6215004,296.68071 9.6439664,296.66683 L 9.6623394,296.65547 V 296.67405 C 9.6623394,296.68953 9.6585904,296.69567 9.6398694,296.71083 9.6057444,296.73848 9.5833654,296.74819 9.5534354,296.74834 9.5124394,296.74855 9.4870654,296.72603 9.4777234,296.68114 L 9.4746344,296.6663 9.4429204,296.69115 C 9.3793944,296.74094 9.3066264,296.76198 9.2591954,296.74428 Z M 9.4093754,296.66935 C 9.4224894,296.66489 9.4413514,296.65445 9.4512914,296.64615 L 9.4693644,296.63108 9.4710054,296.52694 9.4726444,296.42279 9.4604304,296.42627 C 9.4537124,296.42818 9.4261074,296.44022 9.3990854,296.45304 9.3152874,296.49278 9.2745414,296.54559 9.2840874,296.60209 9.2893314,296.63313 9.3054794,296.65565 9.3306904,296.6671 9.3579124,296.67946 9.3780404,296.68004 9.4093754,296.66935 Z M 9.7964484,296.74135 C 9.7750014,296.72828 9.7549524,296.70146 9.7467124,296.67484 9.7421994,296.66026 9.7394144,296.59091 9.7377414,296.45146 L 9.7353154,296.24923 H 9.7041154 C 9.6771154,296.24923 9.6729134,296.2479 9.6729134,296.2393 9.6729134,296.23371 9.6878104,296.2163 9.7070284,296.19942 9.7257904,296.18295 9.7617834,296.14227 9.7870134,296.10901 9.8122434,296.07575 9.8349584,296.04982 9.8374914,296.0514 9.8400244,296.05296 9.8420974,296.08733 9.8420974,296.12777 V 296.20131 L 9.9015764,296.2028 9.9610544,296.2043 9.9626804,296.22676 9.9643064,296.24923 H 9.9032014 9.8420974 L 9.8422234,296.43296 C 9.8422934,296.53401 9.8444734,296.62583 9.8470684,296.63702 9.8594774,296.69049 9.9138994,296.7022 9.9567954,296.66062 9.9731424,296.64478 9.9749804,296.6442 9.9831114,296.65233 9.9912424,296.66046 9.9904754,296.66276 9.9721334,296.68514 9.9469454,296.71588 9.9239094,296.73336 9.8952614,296.74347 9.8630074,296.75485 9.8169584,296.75386 9.7964484,296.74135 Z M 10.443482,296.74428 C 10.411513,296.73235 10.388474,296.71133 10.373234,296.68018 10.361244,296.65567 10.359326,296.64583 10.361114,296.61801 10.366763,296.53011 10.430397,296.47534 10.602674,296.41008 L 10.657438,296.38934 10.655201,296.32979 C 10.653362,296.28081 10.651082,296.26767 10.642358,296.25577 10.613081,296.21584 10.538891,296.21072 10.499006,296.24588 10.488382,296.25524 10.487111,296.26129 10.487111,296.30244 10.487111,296.35885 10.480188,296.37053 10.444363,296.37457 10.424056,296.37686 10.418061,296.37517 10.403777,296.36315 10.371125,296.33568 10.376531,296.29332 10.41838,296.24875 10.455511,296.2092 10.492443,296.19484 10.564212,296.19207 10.635565,296.18932 10.670036,296.1977 10.702836,296.22578 10.725205,296.24492 10.737187,296.26309 10.74776,296.29387 10.750931,296.30309 10.754618,296.3854 10.756353,296.48565 10.759039,296.6409 10.760427,296.6623 10.768323,296.67019 10.780293,296.68214 10.805787,296.68071 10.828253,296.66683 L 10.846627,296.65547 V 296.67405 C 10.846627,296.68953 10.842877,296.69567 10.824156,296.71083 10.790031,296.73848 10.767652,296.74819 10.737722,296.74834 10.696726,296.74855 10.671353,296.72603 10.662011,296.68114 L 10.658921,296.6663 10.627207,296.69115 C 10.56368,296.74094 10.490913,296.76198 10.443482,296.74428 Z M 10.593662,296.66935 C 10.606776,296.66489 10.625638,296.65445 10.635578,296.64615 L 10.653651,296.63108 10.655292,296.52694 10.656932,296.42279 10.644718,296.42627 C 10.638,296.42818 10.610394,296.44022 10.583372,296.45304 10.499573,296.49278 10.458828,296.54559 10.468374,296.60209 10.473618,296.63313 10.489766,296.65565 10.514976,296.6671 10.5422,296.67946 10.562327,296.68004 10.593662,296.66935 Z M 5.7816844,296.73103 C 5.7816844,296.72362 5.7868434,296.7203 5.8021984,296.71785 5.8298284,296.71343 5.8446664,296.70023 5.8505494,296.67484 5.8573704,296.6454 5.8570324,296.32561 5.8501554,296.30085 5.8435484,296.27705 5.8325974,296.27038 5.8001694,296.27038 5.7780364,296.27038 5.7758254,296.26927 5.7773514,296.25892 5.7787804,296.24923 5.7907314,296.24356 5.8547634,296.22218 5.9618164,296.18644 5.9529964,296.18505 5.9561554,296.23814 L 5.9587994,296.28255 5.9905214,296.25519 C 6.0079684,296.24014 6.0374674,296.22024 6.0560734,296.21098 6.1164114,296.18094 6.1817814,296.18909 6.2212454,296.23156 6.2620164,296.27545 6.2680884,296.31186 6.2680884,296.51244 6.2680884,296.64762 6.2694104,296.67603 6.2763894,296.69073 6.2846114,296.70806 6.3007564,296.71782 6.3261914,296.72085 6.3337064,296.72175 6.3401114,296.72639 6.3411174,296.73167 6.3427574,296.74028 6.3339494,296.74092 6.2152184,296.74092 6.0995244,296.74092 6.0877154,296.74011 6.0892644,296.73222 6.0902794,296.72705 6.1008004,296.72065 6.1151704,296.71647 6.1611984,296.70306 6.1594984,296.71062 6.1612384,296.51171 6.1629364,296.31756 6.1612294,296.30487 6.1298404,296.27846 6.1167334,296.26744 6.1084364,296.26509 6.0824264,296.26509 6.0466784,296.26509 6.0204304,296.27618 5.9839044,296.30671 L 5.9610594,296.32581 5.9625734,296.50943 C 5.9640304,296.68631 5.9644834,296.69346 5.9748974,296.70387 5.9808434,296.70981 5.9962874,296.71648 6.0092174,296.71868 6.0252094,296.72142 6.0332864,296.72561 6.0344804,296.73181 6.0361024,296.74023 6.0265924,296.74092 5.9089594,296.74092 5.7881054,296.74092 5.7816844,296.74043 5.7816844,296.73103 Z M 10.012275,296.73174 C 10.01357,296.72501 10.021766,296.72144 10.042846,296.7184 10.07767,296.71339 10.094357,296.70331 10.099754,296.68402 10.101981,296.67606 10.103804,296.58475 10.103804,296.4811 10.103804,296.30319 10.103239,296.29202 10.093731,296.28151 10.082764,296.26939 10.061861,296.26723 10.033716,296.2753 10.017732,296.27988 10.016568,296.27934 10.016568,296.26737 10.016568,296.25874 10.019605,296.25445 10.02582,296.25431 10.030908,296.25419 10.073139,296.24041 10.119664,296.22369 L 10.204256,296.19327 10.207291,296.43141 C 10.209486,296.60365 10.212164,296.67423 10.216964,296.68646 10.22367,296.70354 10.249158,296.71728 10.280864,296.72091 10.288411,296.72178 10.29478,296.72637 10.29579,296.73167 10.297435,296.7403 10.287867,296.74092 10.15403,296.74092 10.020569,296.74092 10.01063,296.74028 10.012275,296.73174 Z M 10.868708,296.73209 C 10.869898,296.72594 10.879946,296.72135 10.90175,296.717 10.941338,296.70909 10.955523,296.6941 10.96022,296.65518 10.962074,296.63982 10.962849,296.49084 10.961944,296.32411 L 10.960297,296.02097 10.944714,296.00757 C 10.930661,295.99549 10.926117,295.99448 10.898453,295.99738 10.870502,296.0003 10.867774,295.99967 10.867774,295.99032 10.867774,295.98212 10.875509,295.97779 10.906105,295.96888 10.927187,295.96275 10.969922,295.94987 11.001072,295.94027 11.032221,295.93066 11.058986,295.92408 11.060551,295.92565 11.062114,295.92721 11.063406,296.09285 11.063423,296.29373 11.063442,296.53119 11.065384,296.66593 11.068972,296.67885 11.075642,296.70287 11.091343,296.71407 11.125122,296.7189 11.143208,296.72149 11.151015,296.72518 11.152276,296.73173 11.153924,296.74028 11.144031,296.74092 11.010523,296.74092 10.879253,296.74092 10.867146,296.74017 10.868708,296.73209 Z M 12.078497,296.73104 C 12.078497,296.7232 12.084917,296.71989 12.109514,296.71505 12.16268,296.70459 12.160209,296.71423 12.161969,296.51039 12.162957,296.39599 12.161488,296.32637 12.157797,296.31266 12.150076,296.28399 12.132996,296.27328 12.101787,296.27756 12.079143,296.28067 12.077871,296.28018 12.079457,296.26901 12.080824,296.25939 12.089079,296.25442 12.123436,296.24256 12.146699,296.23453 12.183575,296.22097 12.205385,296.21242 12.227193,296.20388 12.249114,296.19536 12.254098,296.19349 12.262227,296.19044 12.263316,296.19562 12.264672,296.24379 L 12.266184,296.29749 12.287207,296.2699 C 12.328494,296.2157 12.380201,296.186 12.420194,296.1935 12.472095,296.20324 12.492744,296.26542 12.455531,296.29991 12.435687,296.3183 12.413145,296.31658 12.380576,296.29417 12.365781,296.284 12.348489,296.27567 12.342151,296.27567 12.325526,296.27567 12.297635,296.29882 12.28189,296.32568 L 12.268281,296.34891 12.268672,296.50875 C 12.268954,296.62368 12.270887,296.67231 12.275555,296.68182 12.285498,296.70206 12.305582,296.71394 12.337499,296.71845 12.358809,296.72146 12.366988,296.72499 12.368288,296.73174 12.369933,296.74028 12.359881,296.74092 12.224276,296.74092 12.085402,296.74092 12.078497,296.74045 12.078497,296.73104 Z M 10.124952,296.04857 C 10.10652,296.04095 10.089811,296.01834 10.087054,295.9973 10.083427,295.96961 10.101635,295.94266 10.130853,295.93248 10.150301,295.9257 10.154173,295.92594 10.172976,295.93512 10.186811,295.94188 10.197036,295.9521 10.20379,295.96594 10.212969,295.98474 10.213212,295.98861 10.206434,296.00806 10.194218,296.04311 10.15677,296.06173 10.124952,296.04857 Z M 4.4204721,295.1546 C 4.3350949,295.14116 4.2639124,295.10187 4.2358936,295.05272 4.2186431,295.02246 4.2154156,295.00502 4.2222217,294.97883 4.2270309,294.96033 4.2400805,294.94478 4.2993047,294.88695 4.3646239,294.82318 4.3695788,294.81702 4.3584325,294.81351 4.3391527,294.80744 4.3113158,294.78674 4.3006304,294.77054 4.2763661,294.73373 4.2942072,294.69462 4.3678508,294.62318 L 4.4235005,294.56919 4.3981004,294.55691 C 4.3406699,294.52915 4.2946563,294.46105 4.2862738,294.39143 4.2772546,294.31651 4.2995122,294.24972 4.3526063,294.19237 4.4057089,294.13501 4.4605514,294.11241 4.547171,294.11219 4.5954069,294.11207 4.6060649,294.11405 4.6687724,294.1347 4.7355884,294.15672 4.7398221,294.15742 4.820773,294.15966 L 4.9040431,294.16198 V 294.19314 294.22432 H 4.840034 C 4.7810653,294.22432 4.7763406,294.22504 4.7800445,294.23357 4.8014422,294.28281 4.8057523,294.30327 4.8059459,294.35649 4.8061358,294.4088 4.805137,294.41407 4.7886061,294.44797 4.7673418,294.49156 4.721596,294.53997 4.683342,294.55935 4.6363296,294.58318 4.6016402,294.58962 4.5274395,294.58831 L 4.4601255,294.58711 4.4404752,294.60302 C 4.4147771,294.62382 4.3850088,294.66737 4.3869934,294.68125 4.3880029,294.68831 4.3975567,294.69668 4.4138365,294.70475 4.4372859,294.71638 4.4481719,294.71761 4.5645162,294.7218 4.7432647,294.72825 4.7987176,294.74011 4.8448292,294.78177 4.8893375,294.82198 4.903096,294.90009 4.8774791,294.96714 4.8401878,295.06473 4.6730486,295.1513 4.5101615,295.15739 4.4781763,295.15858 4.4378157,295.15733 4.4204721,295.1546 Z M 4.6582495,295.06215 C 4.7831252,295.04037 4.8613004,294.97335 4.8409698,294.90549 4.8346386,294.88436 4.8175746,294.86955 4.7877294,294.8593 4.7775517,294.85581 4.7026088,294.84963 4.6211884,294.84559 4.539769,294.84154 4.4588783,294.83548 4.4414309,294.83212 L 4.4097092,294.82601 4.3875898,294.85043 C 4.3597415,294.88119 4.333048,294.93402 4.333048,294.95838 4.333048,294.98965 4.3510929,295.0193 4.3793967,295.03453 4.402609,295.04702 4.4569771,295.06227 4.4943012,295.06675 4.5356434,295.07171 4.6164039,295.06945 4.6582495,295.06215 Z M 4.6120341,294.54393 C 4.6596532,294.52403 4.6779536,294.49026 4.680953,294.41674 4.6834823,294.35472 4.6720779,294.29976 4.6440607,294.23898 4.612957,294.1715 4.5589982,294.14355 4.4944201,294.16148 4.4429341,294.17577 4.4153139,294.23082 4.4161717,294.31742 4.4168983,294.39077 4.4373311,294.45518 4.4751107,294.50321 4.508554,294.54573 4.5664884,294.56296 4.6120341,294.54393 Z M 6.0957434,294.84326 C 6.0268024,294.83226 5.9672184,294.80093 5.9139704,294.74768 5.8693924,294.7031 5.8450434,294.66532 5.8265544,294.61204 5.7540024,294.40297 5.8537364,294.18465 6.0486774,294.12581 6.0718284,294.11882 6.0982574,294.11619 6.1464874,294.11608 6.2050374,294.11595 6.2177924,294.11764 6.2583234,294.13093 6.3615414,294.16476 6.4367044,294.23948 6.4719994,294.34332 6.4910154,294.39927 6.4958484,294.49633 6.4827924,294.56007 6.4621744,294.66072 6.3983734,294.75264 6.3130274,294.80463 6.2592974,294.83737 6.1644584,294.85423 6.0957434,294.84326 Z M 6.2187724,294.79269 C 6.2932064,294.77059 6.3388654,294.68381 6.3457104,294.55144 6.3543644,294.38408 6.2861154,294.21705 6.1924934,294.17647 6.1546374,294.16006 6.1012744,294.16008 6.0633384,294.17653 5.9892534,294.20864 5.9506494,294.29424 5.9499574,294.42794 5.9494674,294.52264 5.9653114,294.59593 6.0029804,294.67321 6.0520844,294.77395 6.1323064,294.81837 6.2187724,294.79269 Z M 9.0934694,294.84324 C 9.0246114,294.8323 8.9649604,294.80094 8.9116964,294.74768 8.8671184,294.7031 8.8427694,294.66532 8.8242804,294.61204 8.7516504,294.40274 8.8511144,294.18499 9.0464044,294.12576 9.0703294,294.11851 9.0950194,294.1162 9.1468574,294.11637 9.2076154,294.11657 9.2204274,294.11827 9.2573034,294.13102 9.3114094,294.14972 9.3394464,294.1665 9.3801094,294.20454 9.4233604,294.245 9.4492354,294.28475 9.4685434,294.34039 9.4888964,294.39905 9.4940674,294.49392 9.4805204,294.56007 9.4547524,294.68586 9.3630844,294.7951 9.2543514,294.82959 9.2092514,294.84389 9.1364724,294.85007 9.0934694,294.84324 Z M 9.2164994,294.79269 C 9.2912134,294.7705 9.3365654,294.68431 9.3434364,294.55144 9.3520824,294.38425 9.2837254,294.21678 9.1904604,294.17666 9.1525354,294.16035 9.0985914,294.16029 9.0610654,294.17654 9.0304344,294.1898 8.9976544,294.22205 8.9803674,294.25594 8.9384504,294.3381 8.9359064,294.49937 8.9747504,294.61204 9.0246434,294.75676 9.1136174,294.82324 9.2164994,294.79269 Z M 11.705246,294.84326 C 11.63589,294.83219 11.57637,294.80082 11.523378,294.74738 11.47853,294.70216 11.454301,294.66461 11.436056,294.61204 11.36344,294.40278 11.462929,294.18498 11.65818,294.12576 11.682035,294.11853 11.706948,294.11618 11.758633,294.11631 11.821286,294.11645 11.831359,294.11788 11.872537,294.13238 11.973747,294.16802 12.04535,294.2397 12.080344,294.34039 12.093758,294.37899 12.096389,294.39557 12.098423,294.4543 12.100404,294.51146 12.098948,294.5308 12.089779,294.56917 12.059105,294.69753 11.97135,294.79726 11.858388,294.83215 11.818437,294.84449 11.745926,294.84975 11.705246,294.84326 Z M 11.82955,294.79231 C 11.948913,294.75686 11.99478,294.52608 11.92142,294.33006 11.878678,294.21585 11.822431,294.16516 11.737985,294.16476 11.634992,294.16427 11.573283,294.24023 11.560754,294.38292 11.551972,294.48295 11.569174,294.58144 11.61038,294.66706 11.662563,294.7755 11.739028,294.81919 11.82955,294.79231 Z M 14.343808,294.83754 C 14.322177,294.8309 14.295719,294.80409 14.288146,294.78114 14.280354,294.75753 14.284655,294.72362 14.297652,294.70622 14.317897,294.6791 14.334527,294.67107 14.370409,294.67107 14.396089,294.67107 14.407437,294.67363 14.4186,294.68197 14.441837,294.69932 14.453316,294.71828 14.456229,294.74412 14.463197,294.80594 14.40321,294.85579 14.343808,294.83754 Z M 6.8054264,294.82922 C 6.7107214,294.8063 6.6208294,294.71942 6.5903934,294.62141 6.5558004,294.51001 6.5706274,294.37855 6.6289204,294.27983 6.6703294,294.2097 6.7518544,294.14352 6.8205794,294.12426 6.9253144,294.0949 7.0397184,294.11613 7.1060114,294.17724 7.1371274,294.20592 7.1510164,294.23278 7.1510164,294.26427 7.1510164,294.31123 7.1204244,294.33923 7.0747434,294.33408 7.0364534,294.32977 7.0111814,294.30127 7.0003484,294.25019 6.9860424,294.18273 6.9590244,294.15942 6.8945974,294.15894 6.8054324,294.15829 6.7306934,294.22989 6.7044814,294.34109 6.6942224,294.38462 6.6942414,294.46582 6.7045224,294.50981 6.7160374,294.55909 6.7505804,294.62569 6.7811764,294.65759 6.8508704,294.73029 6.9696024,294.74181 7.0535824,294.68403 7.0773654,294.66766 7.1248234,294.61732 7.1393154,294.59308 7.1492704,294.57643 7.1507724,294.57597 7.1639424,294.58561 7.1730964,294.5923 7.1724594,294.59486 7.1517304,294.63451 7.0697434,294.79137 6.9431334,294.86255 6.8054264,294.82922 Z M 8.1132154,294.83298 C 8.0691324,294.81852 8.0411234,294.7891 8.0249224,294.74025 8.0171484,294.71681 8.0157524,294.67929 8.0140514,294.4479 L 8.0120974,294.18244 7.9688294,294.1809 C 7.9293474,294.17951 7.9256444,294.17846 7.9265014,294.16889 7.9270184,294.16312 7.9424824,294.14535 7.9608664,294.12939 8.0092394,294.08741 8.0290754,294.06537 8.0824294,293.99433 8.1097754,293.95792 8.1338144,293.93089 8.1388464,293.93089 8.1466394,293.93089 8.1477754,293.9416 8.1490564,294.02723 L 8.1504964,294.12357 8.2257174,294.12504 8.3009384,294.1265 8.3025354,294.15426 8.3041334,294.18202 H 8.2242254 8.1443174 L 8.1459664,294.43183 C 8.1474614,294.65826 8.1485004,294.6836 8.1570694,294.70259 8.1702184,294.73174 8.1804454,294.74162 8.2040464,294.74797 8.2346134,294.7562 8.2591754,294.74911 8.2916264,294.72268 8.3180004,294.70119 8.3213764,294.69981 8.3289404,294.70737 8.3362514,294.71469 8.3363454,294.71739 8.3297174,294.72978 8.3147024,294.75784 8.2656084,294.80161 8.2309694,294.81782 8.1949624,294.83467 8.1399424,294.84175 8.1132154,294.83298 Z M 10.961006,294.82922 C 10.912198,294.81741 10.869096,294.79166 10.824876,294.7479 10.766314,294.68996 10.741498,294.63585 10.729958,294.54095 10.706783,294.35034 10.821137,294.16523 10.989375,294.12102 11.086155,294.09558 11.19849,294.11907 11.262578,294.17814 11.292741,294.20595 11.306595,294.23306 11.306595,294.26427 11.306595,294.30857 11.279966,294.33534 11.235911,294.33534 11.197151,294.33534 11.167231,294.30349 11.155927,294.25019 11.141569,294.18248 11.114489,294.15923 11.049932,294.15915 10.959927,294.15905 10.886354,294.22955 10.86006,294.34109 10.849801,294.38462 10.84982,294.46582 10.860101,294.50981 10.871616,294.55909 10.906158,294.62569 10.936754,294.65759 11.006449,294.73029 11.125181,294.74181 11.209161,294.68403 11.232944,294.66766 11.280402,294.61732 11.294894,294.59308 11.304859,294.57642 11.306344,294.57597 11.319602,294.58567 11.328858,294.59244 11.328213,294.59491 11.306628,294.63542 11.222501,294.79331 11.098926,294.8626 10.961006,294.82922 Z M 12.387786,294.83021 C 12.344,294.81636 12.296852,294.78165 12.281491,294.75194 12.257657,294.70585 12.256917,294.69761 12.25355,294.44108 12.251244,294.26534 12.248522,294.1921 12.244004,294.18423 12.233517,294.16596 12.221715,294.15905 12.190355,294.15281 12.165957,294.14796 12.160134,294.14475 12.158755,294.13537 L 12.157066,294.12386 H 12.273558 12.390051 L 12.390332,294.38667 C 12.390507,294.55048 12.392678,294.65714 12.396092,294.66982 12.40406,294.6994 12.433089,294.72911 12.461924,294.73719 12.493694,294.74608 12.542539,294.74122 12.574077,294.72604 12.587931,294.71937 12.611756,294.70214 12.627022,294.68775 L 12.654779,294.6616 V 294.43451 C 12.654779,294.17572 12.655118,294.17809 12.615966,294.16409 12.603873,294.15976 12.582677,294.15474 12.568866,294.15294 12.54667,294.15003 12.543752,294.14815 12.543752,294.13675 V 294.12386 H 12.667824 12.791896 L 12.79339,294.41333 C 12.795009,294.72692 12.794338,294.71991 12.823816,294.73154 12.831167,294.73445 12.847886,294.73772 12.860972,294.73881 12.881613,294.74054 12.884763,294.7424 12.884763,294.75283 12.884763,294.76365 12.878107,294.76685 12.818676,294.78463 12.782328,294.79551 12.736246,294.81068 12.716272,294.81836 12.696298,294.82604 12.67667,294.83232 12.672654,294.83232 12.666862,294.83232 12.665353,294.8196 12.665353,294.77079 V 294.70926 L 12.621716,294.75096 C 12.57505,294.79556 12.538036,294.81859 12.494317,294.83023 12.460883,294.83913 12.415972,294.83912 12.387786,294.83021 Z M 13.8905,294.83091 C 13.842788,294.81531 13.811756,294.76979 13.802161,294.70133 13.799142,294.67978 13.79677,294.55722 13.79677,294.42266 V 294.18245 L 13.753578,294.18091 C 13.723677,294.17985 13.709677,294.17724 13.708083,294.17242 13.706816,294.1686 13.7209,294.15196 13.739379,294.13545 13.792288,294.08818 13.813472,294.06462 13.86633,293.99424 13.895895,293.95488 13.918912,293.92899 13.923657,293.92975 13.930309,293.93082 13.931822,293.94656 13.933029,294.0273 L 13.93447,294.12357 14.00969,294.12504 14.084912,294.1265 14.08651,294.15426 14.088107,294.18202 H 14.008199 13.92829 L 13.929939,294.43183 C 13.931543,294.67473 13.931903,294.68232 13.94299,294.70631 13.96837,294.76122 14.022486,294.76667 14.078746,294.71998 14.102179,294.70053 14.105007,294.69947 14.112768,294.70723 14.124102,294.71857 14.116587,294.73237 14.077572,294.77188 14.025093,294.82503 13.947445,294.84953 13.8905,294.83091 Z M 1.6802629,294.82218 C 1.5855917,294.7779 1.5540868,294.67479 1.6056604,294.57802 1.641071,294.51159 1.7238236,294.45892 1.8997066,294.39088 L 1.964474,294.36583 1.9644439,294.30432 C 1.9644278,294.2705 1.9617774,294.2333 1.9585575,294.22167 1.9446043,294.1713 1.9123739,294.15053 1.8481588,294.15053 1.8023651,294.15053 1.7720827,294.16164 1.7533531,294.18532 1.7421256,294.19952 1.7415458,294.20385 1.7446227,294.25075 1.74826,294.30621 1.7446571,294.31884 1.7199798,294.33716 1.7097457,294.34476 1.6978158,294.34782 1.6794976,294.34755 1.6494733,294.34709 1.6304657,294.33566 1.6183497,294.31075 1.5845747,294.24133 1.6651696,294.14262 1.7775469,294.11577 1.8151491,294.10679 1.9008129,294.10582 1.9390997,294.11394 1.9975564,294.12635 2.0468604,294.16246 2.0684517,294.20868 2.0902705,294.25538 2.0927832,294.28244 2.0960961,294.50632 L 2.0992918,294.72224 2.111773,294.73234 C 2.1293963,294.7466 2.1587085,294.74531 2.1823763,294.72922 2.1930746,294.72195 2.2031431,294.71601 2.2047512,294.71601 2.2063593,294.71601 2.2076753,294.7252 2.2076753,294.73643 2.2076753,294.75404 2.2041338,294.76017 2.1819912,294.78088 2.1416231,294.81864 2.1168893,294.82941 2.0702136,294.82955 2.0370145,294.82966 2.0277447,294.82767 2.0132591,294.81734 1.993214,294.80304 1.9767783,294.77363 1.9719465,294.74341 L 1.9685658,294.72227 1.9334752,294.75098 C 1.9141766,294.76678 1.8762136,294.79084 1.8491167,294.80446 1.802769,294.82775 1.7969654,294.82932 1.7513067,294.83097 1.7114054,294.8324 1.6987612,294.83084 1.6802629,294.82218 Z M 1.9032347,294.7215 C 1.9297928,294.70865 1.9529927,294.68728 1.9598084,294.6694 1.9623744,294.66267 1.964474,294.60125 1.964474,294.53291 V 294.40865 L 1.9525775,294.41215 C 1.9271279,294.41964 1.8565886,294.45165 1.8286037,294.46841 1.7543594,294.51287 1.7199287,294.5622 1.7202821,294.62359 1.720629,294.6835 1.754127,294.72842 1.8047557,294.73687 1.8324717,294.7415 1.8759528,294.73471 1.9032347,294.7215 Z M 7.3747354,294.82235 C 7.3408834,294.80651 7.3217584,294.79045 7.3019034,294.76121 7.2528754,294.68901 7.2726424,294.58623 7.3489234,294.51674 7.3849404,294.48393 7.4812964,294.4344 7.5938024,294.39088 L 7.6585684,294.36583 7.6585384,294.30432 C 7.6585224,294.2705 7.6558734,294.2333 7.6526514,294.22167 7.6390024,294.17239 7.6047914,294.14987 7.5432644,294.14968 7.5003014,294.14954 7.4682434,294.16098 7.4496424,294.18309 7.4370344,294.19807 7.4364444,294.2017 7.4377664,294.25604 7.4390844,294.31022 7.4384864,294.31393 7.4263334,294.32693 7.3861244,294.36993 7.3123464,294.34457 7.3056844,294.28546 7.3017184,294.25027 7.3157594,294.21852 7.3512334,294.18245 7.4025814,294.13024 7.4632864,294.10846 7.5581154,294.10825 7.6874914,294.10796 7.7556944,294.15495 7.7802754,294.26132 7.7847894,294.28086 7.7880444,294.36129 7.7901914,294.50632 L 7.7933864,294.72224 7.8058674,294.73234 C 7.8234914,294.7466 7.8528024,294.74531 7.8764704,294.72922 7.8871684,294.72195 7.8972374,294.71601 7.8988464,294.71601 7.9004534,294.71601 7.9017694,294.7252 7.9017694,294.73643 7.9017694,294.75404 7.8982284,294.76017 7.8760854,294.78088 7.8357174,294.81864 7.8109834,294.82941 7.7643074,294.82955 7.7311094,294.82966 7.7218394,294.82767 7.7073534,294.81734 7.6873084,294.80304 7.6708724,294.77363 7.6660404,294.74341 L 7.6626594,294.72227 7.6275704,294.75098 C 7.6082714,294.76678 7.5703094,294.79084 7.5432114,294.80446 7.4968654,294.82775 7.4910604,294.82932 7.4454014,294.83097 7.4057344,294.83239 7.3928174,294.83082 7.3747354,294.82235 Z M 7.5961954,294.72196 C 7.6224014,294.70971 7.6305244,294.70333 7.6467964,294.68225 7.6582274,294.66744 7.6585684,294.66327 7.6585684,294.53818 7.6585684,294.46733 7.6574324,294.40936 7.6560454,294.40936 7.6490904,294.40936 7.5829594,294.43645 7.5530424,294.45154 7.4573684,294.49985 7.4131084,294.55509 7.4141054,294.62497 7.4154734,294.72067 7.5012454,294.76636 7.5961954,294.72196 Z M 0.17218199,294.80589 C 0.17218199,294.79212 0.17410409,294.79002 0.18672029,294.78996 0.20623289,294.78988 0.25008399,294.7779 0.27154669,294.7668 0.28112479,294.76184 0.29346499,294.75038 0.29896849,294.74133 0.31902489,294.70835 0.32070069,294.66976 0.31910769,294.27718 0.31767279,293.92347 0.31695159,293.89792 0.30791349,293.87975 0.29565609,293.85511 0.27171019,293.84349 0.21844299,293.83632 0.17840079,293.83093 0.17746929,293.83047 0.17746929,293.816 V 293.8012 L 0.33148989,293.8026 0.48551109,293.804 0.65883459,294.18202 C 0.75416309,294.38993 0.83414479,294.56295 0.83657149,294.56651 0.83938369,294.57063 0.90227689,294.4328 1.0096734,294.18717 L 1.1783599,293.80135 H 1.3335013 1.4886444 V 293.81605 C 1.4886444,293.83011 1.4871111,293.83098 1.452838,293.83638 1.4066136,293.84365 1.3793961,293.85684 1.368131,293.87741 1.3598443,293.89254 1.3591118,293.92784 1.3591118,294.31155 1.3591118,294.70517 1.3596652,294.73024 1.3687156,294.74682 1.3801324,294.76774 1.4032646,294.77868 1.4529558,294.78664 1.4870794,294.79211 1.4886444,294.79301 1.4886444,294.80705 V 294.82175 H 1.2718769 1.05511 V 294.80589 C 1.05511,294.79147 1.0567014,294.79002 1.0725036,294.79002 1.097914,294.79002 1.1510166,294.77511 1.1627464,294.76467 1.1903323,294.74014 1.189831,294.74766 1.1912035,294.33798 1.1919436,294.11674 1.1905275,293.96064 1.1878212,293.96525 1.1852596,293.96962 1.1255009,294.10166 1.055025,294.25868 0.78072969,294.86982 0.80471269,294.81893 0.79010179,294.82068 0.77592649,294.82237 0.78569269,294.84271 0.46086069,294.13518 L 0.39687849,293.99582 0.39543389,294.32023 C 0.39457559,294.51264 0.39608839,294.65834 0.39914859,294.67832 0.41005289,294.7495 0.43401869,294.77453 0.50249329,294.78626 0.53532769,294.79189 0.53698519,294.79288 0.53698519,294.80696 V 294.82175 H 0.35458219 0.17218199 Z M 2.2129621,294.81127 C 2.2129621,294.80058 2.2160857,294.79927 2.2579017,294.79248 2.2922969,294.7869 2.3121021,294.77611 2.3223158,294.7574 2.3313624,294.74082 2.3319196,294.71601 2.3319196,294.33006 2.3319196,294.10469 2.3300243,293.91138 2.3277069,293.90045 2.3214924,293.87114 2.3048108,293.86246 2.254379,293.86229 2.2156302,293.86216 2.212968,293.86143 2.2129648,293.85084 2.2129621,293.84111 2.2191077,293.8379 2.2565803,293.82804 2.2805697,293.82172 2.332316,293.80691 2.3715719,293.79514 2.4108284,293.78336 2.4465149,293.7734 2.4508766,293.77301 2.4578204,293.77237 2.4591364,293.81205 2.4614512,294.09186 L 2.4640946,294.41145 2.5761164,294.31263 C 2.6377279,294.25828 2.691854,294.20851 2.6963954,294.20203 2.7167959,294.17291 2.7010168,294.15558 2.6540819,294.15558 2.632596,294.15558 2.6306346,294.15448 2.6306346,294.14237 V 294.12915 H 2.7896123 2.9485901 L 2.9469008,294.14105 C 2.9454132,294.15152 2.9411009,294.15339 2.9108459,294.15671 2.8723967,294.16092 2.822728,294.17744 2.7940246,294.19556 2.7530105,294.22145 2.5708845,294.38099 2.5735957,294.38866 2.5764671,294.39677 2.7230954,294.58612 2.7737542,294.64713 2.854888,294.74485 2.8995006,294.78036 2.9604242,294.7957 2.9786445,294.80029 2.9848638,294.80439 2.9848638,294.8118 2.9848638,294.82133 2.9777807,294.82175 2.8156799,294.82175 2.6513277,294.82175 2.646496,294.82145 2.646496,294.81141 2.646496,294.80359 2.6513148,294.80027 2.6663221,294.79773 2.7007469,294.79192 2.704653,294.78981 2.704653,294.77698 2.704653,294.76909 2.6616657,294.70789 2.5851426,294.60683 2.5194125,294.52003 2.4645523,294.44788 2.4632325,294.4465 2.4619127,294.44512 2.4615658,294.51173 2.4624628,294.59453 2.463951,294.73181 2.4649879,294.74656 2.4742207,294.76182 2.4871052,294.7831 2.5034323,294.79056 2.5447218,294.794 2.5751553,294.79654 2.5777648,294.79774 2.5777648,294.80925 V 294.82175 H 2.3953635 C 2.2170716,294.82175 2.2129621,294.82151 2.2129621,294.81127 Z M 3.0112982,294.81153 C 3.0112982,294.80033 3.016913,294.79796 3.0561141,294.79261 3.0705847,294.79063 3.0913111,294.78448 3.1021724,294.77894 3.1348229,294.76229 3.135543,294.75594 3.135543,294.48509 3.135543,294.25063 3.1353392,294.24596 3.124429,294.23131 3.1077302,294.20889 3.0903054,294.20474 3.0532879,294.21438 L 3.0218728,294.22257 V 294.20875 C 3.0218728,294.1957 3.0257682,294.19365 3.0919253,294.17199 3.1304547,294.15938 3.183246,294.14093 3.2092398,294.13099 3.2352337,294.12105 3.259548,294.1141 3.2632708,294.11552 3.2686425,294.11759 3.2703452,294.18282 3.271522,294.4316 3.2727272,294.68647 3.2743778,294.74775 3.280346,294.75937 3.2893792,294.77695 3.3130502,294.78865 3.3503695,294.794 3.3742336,294.79742 3.3790132,294.79994 3.3804341,294.8099 L 3.3821234,294.82175 H 3.1967108 C 3.0169786,294.82175 3.0112982,294.82143 3.0112982,294.81153 Z M 3.4404999,294.81043 C 3.4418256,294.80154 3.4484446,294.79755 3.4712675,294.79187 3.5074649,294.78286 3.5273303,294.76292 3.5320002,294.73088 3.5338282,294.71834 3.5345919,294.60285 3.5336965,294.47424 L 3.5320674,294.24041 3.5176684,294.22601 C 3.5056164,294.21396 3.4976411,294.21126 3.4687629,294.20942 3.4369691,294.2074 3.4342585,294.20627 3.4342585,294.19512 3.4342585,294.18404 3.4433923,294.18006 3.5420864,294.14815 3.6013907,294.12898 3.6523974,294.11329 3.6554324,294.11329 3.6628381,294.11329 3.6685901,294.15433 3.6655111,294.1852 3.6608848,294.23156 3.6639896,294.23273 3.7031488,294.19944 3.7840185,294.1307 3.8309636,294.11058 3.901788,294.1143 3.9366768,294.11613 3.9501734,294.11937 3.969095,294.13046 4.0007381,294.14901 4.0245624,294.17391 4.0405023,294.20512 4.0657432,294.25453 4.0685071,294.2844 4.068606,294.5088 4.0686657,294.64461 4.0707535,294.72477 4.0746312,294.74017 4.0808807,294.76499 4.102487,294.78815 4.1232974,294.79233 4.1616595,294.80005 4.1638635,294.80108 4.1638635,294.81127 4.1638635,294.82148 4.1598207,294.82175 4.0022424,294.82175 H 3.8406213 L 3.8423111,294.81007 C 3.8435852,294.80126 3.8490161,294.79735 3.8643912,294.79417 3.8940891,294.78803 3.9139368,294.77453 3.9245415,294.75325 3.9329046,294.73647 3.9340415,294.71277 3.9354339,294.52631 3.9370759,294.30631 3.9347219,294.27576 3.9137458,294.24495 3.8917028,294.21258 3.8770348,294.20581 3.8288527,294.20581 3.7779013,294.20581 3.7494195,294.2178 3.7009464,294.25965 L 3.6718611,294.28476 3.6733385,294.5185 C 3.6747826,294.74681 3.6750757,294.7526 3.6859584,294.76717 3.6974914,294.78261 3.7186003,294.7923 3.7527997,294.79786 3.76785,294.8003 3.7726264,294.80357 3.7726264,294.81141 3.7726264,294.82145 3.7678113,294.82175 3.605718,294.82175 H 3.4388101 Z M 5.3702534,294.8099 C 5.3716554,294.80006 5.3764084,294.79741 5.3982394,294.7943 5.4406674,294.78826 5.4628024,294.77565 5.4749324,294.75059 5.4853704,294.72903 5.4856124,294.71912 5.4855934,294.31385 5.4855744,293.90871 5.4853294,293.89877 5.4750164,293.88185 5.4692104,293.87233 5.4579184,293.86199 5.4499234,293.85888 5.4355254,293.85329 5.3910994,293.85526 5.3732644,293.86228 5.3657034,293.86526 5.3640114,293.86304 5.3640114,293.85013 5.3640114,293.83568 5.3661604,293.8338 5.3891244,293.82809 5.4029374,293.82465 5.4573294,293.8089 5.5099984,293.79309 5.5626664,293.77728 5.6083714,293.76435 5.6115654,293.76435 5.6157314,293.76435 5.6178054,293.90222 5.6189024,294.25207 5.6203274,294.70668 5.6210654,294.74096 5.6297724,294.75689 5.6415284,294.7784 5.6625844,294.7894 5.7011964,294.7942 5.7271804,294.79743 5.7316964,294.79964 5.7331484,294.80986 L 5.7348374,294.82175 H 5.5517004 5.3685634 Z M 8.3617394,294.81153 C 8.3617394,294.80033 8.3673524,294.79796 8.4065534,294.79261 8.4210244,294.79063 8.4417514,294.78448 8.4526124,294.77894 8.4852114,294.76231 8.4859354,294.75593 8.4859614,294.48509 8.4859824,294.25062 8.4857794,294.24597 8.4748694,294.23131 8.4581704,294.20889 8.4407454,294.20474 8.4037274,294.21438 L 8.3723124,294.22257 V 294.20875 C 8.3723124,294.1957 8.3762074,294.19365 8.4423654,294.17199 8.4808944,294.15938 8.5336864,294.14093 8.5596804,294.13099 8.5856744,294.12105 8.6099874,294.1141 8.6137114,294.11552 8.6190824,294.11759 8.6207854,294.18282 8.6219624,294.4316 8.6231674,294.68647 8.6248174,294.74775 8.6307864,294.75937 8.6398184,294.77695 8.6634894,294.78865 8.7008094,294.794 8.7246734,294.79742 8.7294534,294.79994 8.7308744,294.8099 L 8.7325644,294.82175 H 8.5471514 C 8.3674184,294.82175 8.3617394,294.82143 8.3617394,294.81153 Z M 9.5628404,294.81043 C 9.5641674,294.80154 9.5707854,294.79755 9.5936084,294.79187 9.6298054,294.78286 9.6496724,294.76292 9.6543414,294.73088 9.6561704,294.71834 9.6569324,294.60285 9.6560374,294.47424 L 9.6544094,294.24041 9.6400084,294.22601 C 9.6279574,294.21396 9.6199824,294.21126 9.5911044,294.20942 9.5592864,294.20739 9.5565994,294.20628 9.5565994,294.19509 9.5565994,294.18397 9.5656284,294.18004 9.6645104,294.14812 9.7238614,294.12897 9.7747354,294.11329 9.7775644,294.11329 9.7855514,294.11329 9.7874624,294.12766 9.7867794,294.18264 L 9.7861494,294.23348 9.8231364,294.20165 C 9.9048564,294.13132 9.9527124,294.11049 10.023643,294.11438 10.088858,294.11796 10.133272,294.1469 10.162894,294.20512 10.188099,294.25465 10.190846,294.28445 10.190976,294.50981 10.191054,294.64338 10.19317,294.72627 10.196848,294.73979 10.204444,294.76773 10.225302,294.78912 10.248801,294.79307 10.28113,294.79849 10.286205,294.80099 10.286205,294.81153 10.286205,294.8214 10.280802,294.82175 10.124584,294.82175 H 9.9629624 L 9.9646524,294.81007 C 9.9659264,294.80126 9.9713574,294.79735 9.9867334,294.79417 10.01643,294.78803 10.036277,294.77453 10.046882,294.75325 10.055246,294.73647 10.056383,294.71277 10.057774,294.52631 10.059417,294.30631 10.057063,294.27576 10.036087,294.24495 10.016534,294.21623 9.9987874,294.20652 9.9614804,294.20415 9.9140664,294.20113 9.8816634,294.21322 9.8336444,294.25185 L 9.7942004,294.28358 9.7956784,294.51792 C 9.7971234,294.74681 9.7974164,294.75259 9.8082994,294.76717 9.8198324,294.78261 9.8409414,294.7923 9.8751414,294.79786 9.8901914,294.8003 9.8949664,294.80357 9.8949664,294.81141 9.8949664,294.82145 9.8901534,294.82175 9.7280584,294.82175 H 9.5611514 Z M 12.946517,294.81043 C 12.947844,294.80154 12.954463,294.79755 12.977286,294.79187 13.013483,294.78286 13.033349,294.76292 13.038019,294.73088 13.039847,294.71834 13.040611,294.60285 13.039715,294.47424 L 13.038086,294.24041 13.023685,294.22601 C 13.011634,294.21396 13.00366,294.21126 12.974781,294.20942 12.942964,294.20739 12.940277,294.20628 12.940277,294.19509 12.940277,294.18397 12.949306,294.18004 13.048187,294.14812 13.107538,294.12897 13.158412,294.11329 13.161242,294.11329 13.169228,294.11329 13.171139,294.12766 13.170457,294.18264 L 13.169826,294.23348 13.206814,294.20165 C 13.288533,294.13132 13.33639,294.11049 13.40732,294.11438 13.472535,294.11796 13.51695,294.1469 13.546572,294.20512 13.571777,294.25465 13.574524,294.28445 13.574654,294.50981 13.574732,294.64338 13.576849,294.72627 13.580525,294.73979 13.588122,294.76773 13.608979,294.78912 13.632478,294.79307 13.664807,294.79849 13.669882,294.80099 13.669882,294.81153 13.669882,294.8214 13.664479,294.82175 13.508261,294.82175 H 13.346639 L 13.348329,294.81007 C 13.349603,294.80126 13.355034,294.79735 13.37041,294.79417 13.400108,294.78803 13.419955,294.77453 13.43056,294.75325 13.438923,294.73647 13.44006,294.71277 13.441452,294.52631 13.443095,294.30631 13.44074,294.27576 13.419764,294.24495 13.400211,294.21623 13.382465,294.20652 13.345157,294.20415 13.297743,294.20113 13.26534,294.21322 13.217322,294.25185 L 13.177877,294.28358 13.179356,294.51792 C 13.180801,294.74681 13.181093,294.75259 13.191977,294.76717 13.20351,294.78261 13.224618,294.7923 13.258818,294.79786 13.273868,294.8003 13.278644,294.80357 13.278644,294.81141 13.278644,294.82145 13.27383,294.82175 13.111737,294.82175 H 12.944829 Z M 3.1500335,293.9177 C 3.0784583,293.87406 3.1136215,293.764 3.1968608,293.77113 3.2272643,293.77374 3.2458551,293.78695 3.2603585,293.81626 3.2739852,293.8438 3.271835,293.87218 3.2542505,293.89687 3.232244,293.92778 3.1827797,293.93766 3.1500335,293.9177 Z M 8.5004734,293.9177 C 8.4763774,293.90301 8.4622314,293.87757 8.4622314,293.84894 8.4622314,293.76647 8.5702914,293.73922 8.6087734,293.812 8.6153894,293.82451 8.6208014,293.8416 8.6208014,293.84998 8.6208014,293.87236 8.6016944,293.90601 8.5822574,293.91786 8.5599004,293.93149 8.5229734,293.93141 8.5004734,293.9177 Z M 2.0966485,293.20064 C 1.777157,293.17762 1.5388601,293.12448 1.3009816,293.02319 0.85932449,292.83513 0.48497329,292.48791 0.24752179,292.04607 0.12415419,291.81651 0.04548949,291.55457 0.01015259,291.25565 -0.00337191,291.14124 -0.00344241,290.82615 0.01002789,290.70318 0.06829359,290.17127 0.24717219,289.76275 0.58309139,289.39444 0.67750339,289.29092 0.81181779,289.17358 0.93343969,289.08837 1.1337424,288.94803 1.3710836,288.84087 1.6181744,288.7792 1.8229915,288.72808 1.9995974,288.70782 2.2420403,288.70763 2.5028783,288.70742 2.6997094,288.73206 2.917403,288.7922 3.3092704,288.90044 3.6644516,289.12192 3.9381779,289.42873 4.2872048,289.81994 4.4631663,290.27336 4.486107,290.84064 4.5080247,291.38262 4.3847915,291.85619 4.1194622,292.24962 3.8940966,292.5838 3.5556739,292.86454 3.1898412,293.02079 2.9784121,293.1111 2.7676075,293.16407 2.5116776,293.19121 2.4411233,293.19869 2.1587037,293.20511 2.0966485,293.20064 Z M 2.4138682,292.97404 C 2.7255285,292.92234 2.9530868,292.73862 3.11466,292.40823 3.2918327,292.04595 3.3673049,291.57166 3.3586385,290.875 3.3543746,290.53223 3.3345506,290.31267 3.2856015,290.06609 3.2294936,289.78345 3.1401613,289.55009 3.0170867,289.36467 2.8648387,289.13531 2.6784107,288.99705 2.4508766,288.94477 2.2886128,288.90748 2.0886742,288.91806 1.927464,288.97246 1.5042358,289.11528 1.23794,289.58639 1.1583616,290.33309 1.1393373,290.51158 1.1335977,290.62313 1.1307414,290.86972 1.1246005,291.39992 1.163287,291.77849 1.2566099,292.10144 1.4128722,292.64221 1.7062622,292.93707 2.1324317,292.98165 2.1962703,292.98833 2.3533275,292.98408 2.4138682,292.97404 Z M 11.985974,293.20081 C 11.749564,293.18347 11.637472,293.16678 11.46834,293.12377 11.159391,293.04518 10.885544,292.90886 10.635147,292.70899 10.549291,292.64046 10.385577,292.47851 10.318912,292.39617 10.133818,292.16753 10.007234,291.91139 9.9329524,291.61518 9.8497074,291.28324 9.8378064,290.88214 9.9003244,290.51549 9.9357964,290.30744 10.010529,290.07442 10.096775,289.90293 10.305513,289.48788 10.667119,289.13487 11.090986,288.93236 11.295975,288.83442 11.511183,288.77199 11.747941,288.74178 12.131823,288.69279 12.47348,288.72919 12.846995,288.85885 13.236248,288.99397 13.279527,289.0077 13.324068,289.01019 13.419922,289.01554 13.49369,288.96999 13.554232,288.86809 13.575336,288.83257 13.606225,288.75377 13.606367,288.73509 13.606432,288.72665 13.614269,288.72584 13.696317,288.72584 H 13.786196 V 289.4688 290.21176 L 13.70557,290.2103 13.624942,290.20884 13.60925,290.17712 C 13.408156,289.7706 13.238947,289.51798 13.037332,289.32327 12.817219,289.11069 12.594656,288.99407 12.324342,288.94968 12.252566,288.93789 12.059257,288.93649 11.985974,288.94723 11.780879,288.97728 11.621873,289.04689 11.486331,289.16595 11.28106,289.34626 11.127519,289.69067 11.047539,290.15021 10.984129,290.51455 10.967199,290.98227 11.002836,291.3852 11.060945,292.04218 11.268031,292.49593 11.613241,292.72264 11.735504,292.80294 11.876003,292.85402 12.044131,292.8793 12.129878,292.89219 12.331864,292.89227 12.430082,292.87946 12.623823,292.85417 12.781298,292.80703 12.953495,292.72277 13.166168,292.6187 13.358242,292.46946 13.616876,292.20731 13.696942,292.12615 13.70484,292.11957 13.714685,292.12571 13.736332,292.1392 13.891936,292.26908 13.891936,292.27365 13.891936,292.28117 13.766005,292.41577 13.664619,292.51662 13.431164,292.74882 13.252333,292.88425 13.037509,292.99154 12.81977,293.10027 12.61681,293.16077 12.369282,293.19072 12.301874,293.19888 12.049971,293.20551 11.985974,293.20081 Z M 7.0822854,293.19509 C 6.3949044,293.16492 5.8546194,292.91666 5.4519674,292.44598 5.2420494,292.20059 5.0905284,291.90328 5.0127714,291.5842 4.9036607,291.13645 4.9226527,290.61632 5.0635104,290.1946 5.2439254,289.65445 5.6450154,289.19032 6.1438444,288.94446 6.3285104,288.85345 6.5294224,288.78927 6.7359874,288.7553 7.1532124,288.68669 7.5314094,288.71927 7.9097004,288.8564 8.1001224,288.92543 8.2607114,288.979 8.3269764,288.99558 8.4856164,289.03529 8.5699794,289.00077 8.6358534,288.86918 8.6502964,288.84033 8.6687724,288.79628 8.6769124,288.77128 L 8.6917124,288.72584 H 8.7805014 8.8692904 V 289.46866 290.21149 L 8.7886634,290.21142 8.7080374,290.21136 8.6406674,290.07792 C 8.3719694,289.54575 8.0951364,289.22858 7.7510914,289.05873 7.3844264,288.87772 6.9300654,288.90098 6.6390544,289.11564 6.4533834,289.2526 6.3193274,289.46159 6.2183654,289.77146 6.0624414,290.25002 6.0183694,291.01729 6.1127674,291.6099 6.1624774,291.92196 6.2676564,292.27203 6.3693064,292.46374 6.5251144,292.7576 6.7753994,292.92626 7.1272254,292.97446 7.2131344,292.98622 7.4345464,292.988 7.5105324,292.97753 7.7601044,292.94314 7.8955344,292.84989 7.9354214,292.68498 7.9401014,292.66563 7.9463194,292.6228 7.9492404,292.58981 7.9561434,292.51182 7.9561954,291.89497 7.9493064,291.80467 7.9403194,291.68686 7.9110434,291.60809 7.8533974,291.5466 7.8155834,291.50625 7.7789434,291.48435 7.7216934,291.46788 7.6451914,291.44586 7.4837464,291.42749 7.3667264,291.42749 H 7.3149134 V 291.34555 291.2636 H 8.3987474 9.4825814 V 291.34475 291.4259 L 9.4243884,291.42944 C 9.3545604,291.43368 9.2610754,291.44912 9.2103014,291.4648 9.0526674,291.51349 8.9907374,291.59606 8.9558224,291.80411 8.9477934,291.85195 8.9464734,291.91463 8.9446804,292.33303 L 8.9426464,292.80768 8.9228044,292.82021 C 8.7847664,292.90735 8.3814934,293.04738 8.0848644,293.11118 7.7839594,293.17589 7.3920634,293.20869 7.0822854,293.19509 Z M 14.43048,289.52905 C 14.218653,289.51094 14.033155,289.34582 13.990202,289.13713 13.979709,289.08614 13.979254,288.98325 13.989293,288.93118 14.023944,288.7514 14.170876,288.59389 14.349261,288.54528 14.384314,288.53573 14.406496,288.53368 14.478793,288.53334 14.572946,288.5329 14.606467,288.53906 14.681368,288.57056 14.792645,288.61736 14.905271,288.73401 14.94922,288.84796 14.985486,288.94201 14.991089,289.07637 14.962745,289.17233 14.911425,289.34607 14.75758,289.48854 14.586291,289.52094 14.531006,289.53139 14.485609,289.53375 14.43048,289.52905 Z M 14.530226,289.4709 C 14.636112,289.4591 14.715236,289.42093 14.791338,289.34496 14.860718,289.27569 14.89774,289.20896 14.915544,289.1211 14.927164,289.06375 14.923279,288.9615 14.907392,288.90651 14.866056,288.76342 14.746839,288.64464 14.603037,288.60325 14.547329,288.58721 14.42194,288.58573 14.367765,288.60046 14.241453,288.63482 14.126707,288.73257 14.074345,288.85043 14.030287,288.9496 14.026893,289.08779 14.065969,289.19155 14.109893,289.30818 14.222777,289.41442 14.343974,289.45319 14.379572,289.46458 14.403182,289.46875 14.472392,289.47589 14.476142,289.47628 14.502167,289.47403 14.530226,289.4709 Z M 14.622992,289.31749 C 14.586034,289.29919 14.574872,289.27074 14.566158,289.17259 14.557206,289.07176 14.535587,289.04947 14.437818,289.0403 14.407446,289.03745 14.399415,289.03818 14.399136,289.04384 14.398944,289.04777 14.399007,289.09738 14.399277,289.15408 L 14.399767,289.25718 14.41314,289.26908 C 14.424069,289.2788 14.432737,289.28097 14.460583,289.28097 H 14.494654 V 289.30212 289.32327 H 14.346617 14.198582 V 289.30212 289.28097 H 14.230651 C 14.261812,289.28097 14.281753,289.27491 14.289701,289.263 14.291838,289.2598 14.293622,289.15208 14.293667,289.02362 L 14.293748,288.79005 14.279817,288.77909 C 14.270906,288.77208 14.258048,288.76811 14.244129,288.76807 14.206242,288.76794 14.198582,288.76384 14.198582,288.74373 V 288.72584 H 14.334722 C 14.502958,288.72585 14.57408,288.73197 14.621121,288.7505 14.655117,288.76389 14.686159,288.78331 14.699643,288.79964 14.741934,288.85085 14.735235,288.92924 14.685181,288.96889 14.658531,288.98999 14.615106,289.00976 14.579245,289.01709 14.533917,289.02637 14.532222,289.02758 14.552597,289.03623 14.611494,289.06123 14.644299,289.10351 14.673768,289.19243 14.697019,289.26258 14.707059,289.28097 14.722117,289.28097 14.744394,289.28097 14.758238,289.25222 14.765388,289.19109 14.766708,289.17981 14.769637,289.17788 14.785438,289.17788 H 14.803943 L 14.802105,289.20378 C 14.798273,289.25783 14.772992,289.30157 14.735825,289.31844 14.705133,289.33238 14.652171,289.33193 14.622992,289.31749 Z M 14.543082,288.98605 C 14.59657,288.96193 14.618874,288.90309 14.600121,288.83556 14.593061,288.81014 14.56426,288.78223 14.536515,288.77392 14.492647,288.76077 14.415105,288.76762 14.403642,288.78565 14.401446,288.7891 14.399613,288.83927 14.399568,288.89713 L 14.399487,289.00233 14.459812,288.99937 C 14.503299,288.99722 14.526539,288.9935 14.543082,288.98605 Z"
       id="path5590"
       inkscape:connector-curvature="0" />
  </g>
</svg>
